<?xml version="1.0" encoding="utf-8"?>
<!-- Generator: Adobe Illustrator 22.0.1, SVG Export Plug-In . SVG Version: 6.00 Build 0)  -->
<svg version="1.1" id="Layer_1" xmlns="http://www.w3.org/2000/svg" xmlns:xlink="http://www.w3.org/1999/xlink" x="0px" y="0px"
	 viewBox="0 0 64 64" style="enable-background:new 0 0 64 64;" xml:space="preserve">
<path d="M64,31C63.3,14.5,49.9,1.1,33.4,0.5C24.6,0.1,16.2,3.3,9.8,9.4C3.5,15.5,0,23.7,0,32.5c0,14.4,9.7,27.1,23.5,30.8
	c0.4,0.1,0.8,0.2,1.2,0.2c1,0,2-0.3,2.8-1c1.1-0.9,1.8-2.2,1.8-3.6v-3.3c0-0.9,0.1-4.9,0.1-5.7c0.1-0.5,0.2-0.9,0.5-1.2
	c0.7-0.9,0.8-2.1,0.3-3.1c-0.5-0.9-1.3-1.5-2.3-1.6c-0.7-0.1-1.4-0.2-1.9-0.4c-0.8-0.2-1.6-0.6-2.4-1c-0.6-0.3-1.2-0.8-1.7-1.4
	c-0.4-0.5-0.8-1.3-1.1-2.3c-0.4-1.2-0.6-2.5-0.6-3.9c0-1.8,0.6-3.3,1.7-4.5l1.1-1.2l-0.6-1.5c-0.2-0.5-0.4-1.2-0.3-2.4
	c1.4,0.5,1.8,0.8,1.8,0.8l0.1,0.1c0.4,0.2,0.7,0.5,1,0.6l1.2,0.7l1-0.3c1.7-0.5,3.4-0.7,5.2-0.7c1.8,0,3.5,0.2,5.2,0.7l1,0.3
	l2.1-1.3c0.7-0.4,1.4-0.8,2.2-1.1c0.1,0.9,0,1.7-0.3,2.5l-0.6,1.5l1.1,1.2c1.1,1.2,1.7,2.7,1.7,4.5c0,1.5-0.2,2.7-0.5,3.8
	c-0.4,1.2-0.8,1.9-1.2,2.4c-0.4,0.5-1,1-1.8,1.5c-0.9,0.5-1.6,0.7-2.4,1c-0.5,0.2-1.3,0.3-2,0.4l-0.1,0c-1,0.2-1.8,0.9-2.2,1.8
	c-0.4,0.9-0.3,1.9,0.3,2.8c0.4,0.5,0.6,1.3,0.6,2.3v7.9c0,1.4,0.7,2.8,1.8,3.6c1.1,0.8,2.6,1.1,4,0.7C55.5,58.9,64.7,45.6,64,31z
	 M40.7,58.2V51c0-0.9-0.1-1.7-0.3-2.4c1.1-0.3,2.2-0.7,3.4-1.4l0.1-0.1c1.3-0.8,2.3-1.6,3.1-2.6c1-1.2,1.6-2.6,2.1-4
	c0.5-1.6,0.8-3.3,0.8-5.4c0-2.6-0.7-4.8-2.1-6.8c0.4-2.1,0.2-4.2-0.7-6.5l-0.4-1.1l-1.1-0.4c-1.1-0.4-2.5-0.3-4.2,0.4
	c-1.1,0.4-2.1,0.9-3.2,1.5L38,22.4c-3.5-0.8-7.3-0.8-10.9,0c-0.1-0.1-0.2-0.1-0.3-0.2c-0.6-0.4-1.5-0.9-2.9-1.4
	c-1.7-0.8-3.2-0.9-4.4-0.5l-1.1,0.4l-0.4,1.1c-0.9,2.4-1.1,4.5-0.6,6.5c-1.4,1.9-2.1,4.2-2.1,6.8c0,1.9,0.2,3.6,0.8,5.3
	c0.5,1.7,1.2,3.1,2,4.1c1,1.1,2,2,3.2,2.6c1.1,0.6,2.2,1.1,3.4,1.4c0,0,0,0,0,0c-0.1,0.3-0.1,0.6-0.2,1l0,0.3c0,0,0,1.4,0,2.9
	c-2.4-0.8-4.4-1.8-6-3.5c-1.1-1.2-2.3-2.4-2.9-2.8c-1.3-0.6-2.1,0.7-1.8,1.3c0.3,0.9,1.6,1.4,2.3,2.1c0.8,0.8,0.9,1.9,1.6,2.8
	c1,1.4,4.5,3.1,6.9,2.6c0,0.2,0,0.4,0,0.5v2.7C12.9,55.1,5,44.5,5,32.5c0-7.4,2.9-14.3,8.3-19.5C18.4,8.1,25,5.5,32.1,5.5
	c0.4,0,0.7,0,1.1,0C47.1,6,58.4,17.3,59,31.2C59.6,43.3,52.1,54.3,40.7,58.2z"/>
</svg>
