<?xml version="1.0" encoding="utf-8"?>
<!-- Generator: Adobe Illustrator 25.0.0, SVG Export Plug-In . SVG Version: 6.00 Build 0)  -->
<svg version="1.1" id="Squirrel_Image_2_" xmlns="http://www.w3.org/2000/svg" xmlns:xlink="http://www.w3.org/1999/xlink" x="0px"
	 y="0px" viewBox="0 0 516.78 486" style="enable-background:new 0 0 516.78 486;" xml:space="preserve">
<style type="text/css">
	.st0{fill:none;stroke:#212932;stroke-width:17.897;stroke-linecap:round;stroke-linejoin:round;stroke-miterlimit:10;}
</style>
<g id="Squirrel_Image_1_">
	<g id="Squirrel_Image">
		<path id="Squirrel-Image_1_" class="st0" d="M139.38,250.55c-21.15-13.22-27.19-17.75-39.15-37.89
			c-11.96-20.13-17.93-41.49-17.93-64.07c0-22.2,5.78-43.18,17.35-62.94C111.2,65.89,128.36,50,151.1,37.95
			c22.73-12.04,50.17-18.06,82.32-18.06h127.59c17.25,0,33.12,3.95,47.63,11.85c14.49,7.9,26.06,18.63,34.69,32.18
			c8.62,13.55,12.94,28.42,12.94,44.6c0,15.05-21.18,55.39-36.44,54.37c-20.14-1.35-54.48-39.98-75-28.35
			c-23.73,13.46,1.43,30.62,2.07,30.99c18.69,10.63,61.16,23.05,79.97,46.57c18.82,23.52,28.22,49.96,28.22,79.31
			c0,22.58-5.79,43.66-17.35,63.22l-60.25,91.38c-20.76,36.07-39.88,10.68-53.2,0.86c-68.97-50.85-138.7,0.37-138.7,0.37
			c-54.22,48.3-58.44-15.65-58.44-15.65c-4.96-36.05-30.97-21.28-45.13-19.93c-33.41,3.17-37.18-16.41-38.26-27.89
			c-4.08-43.38,31.18-57.14,31.18-57.14c-8.5-19.05-9.07-33.85,0-36.88c9.9-3.3,34.72,18.51,34.72,18.51
			c102.03-76.87,223.2-10.2,223.2-10.2"/>
	</g>
</g>
</svg>
