<?xml version="1.0" encoding="utf-8"?>
<!-- Generator: Adobe Illustrator 25.0.0, SVG Export Plug-In . SVG Version: 6.00 Build 0)  -->
<svg version="1.1" id="Layer_1" xmlns="http://www.w3.org/2000/svg" xmlns:xlink="http://www.w3.org/1999/xlink" x="0px" y="0px"
	 viewBox="0 0 600 133.56" style="enable-background:new 0 0 600 133.56;" xml:space="preserve">
<style type="text/css">
	.st0{fill:#F5F7FA;}
</style>
<g>
	<path class="st0" d="M59.41,61.28c2.57,1.25,4.91,2.82,7.02,4.7c2.11,1.88,3.91,4.01,5.4,6.38c1.48,2.37,2.63,4.91,3.46,7.62
		c0.82,2.71,1.24,5.51,1.24,8.41c0,4.09-0.78,7.95-2.33,11.58c-1.55,3.63-3.68,6.79-6.38,9.5c-2.71,2.7-5.88,4.83-9.5,6.38
		c-3.63,1.55-7.52,2.33-11.68,2.33c-4.22,0-8.03-0.68-11.43-2.03c-3.4-1.35-6.41-3.02-9.05-5c-2.64-1.98-4.85-4.1-6.63-6.38
		c-1.78-2.28-3.13-4.37-4.06-6.28h-0.1c-1.45-2.51-1.83-5.13-1.13-7.87c0.69-2.74,2.29-4.86,4.8-6.38c1.25-0.73,2.56-1.19,3.9-1.39
		c1.35-0.2,2.67-0.11,3.96,0.25c1.29,0.36,2.49,0.94,3.62,1.73c1.12,0.79,2.04,1.81,2.77,3.07l0.19,0.3
		c0.14,0.13,0.21,0.26,0.25,0.4c0.03,0.13,0.12,0.26,0.25,0.4c0,0.07,0.28,0.55,0.85,1.44c0.56,0.89,1.37,1.85,2.42,2.87
		c1.06,1.02,2.36,1.96,3.91,2.82c1.55,0.86,3.38,1.29,5.49,1.29c1.25,0,2.44-0.23,3.56-0.69s2.1-1.1,2.92-1.93s1.46-1.78,1.93-2.87
		c0.46-1.09,0.69-2.26,0.69-3.51c0-1.71-0.44-3.33-1.33-4.85c-0.89-1.52-2.12-2.64-3.71-3.36l-17.61-7.52
		c-0.13,0-0.33-0.07-0.59-0.2c-4.75-2.44-8.52-5.89-11.29-10.34c-2.77-4.45-4.15-9.35-4.15-14.69c0-3.83,0.74-7.45,2.23-10.88
		s3.48-6.4,5.99-8.9c2.5-2.51,5.46-4.5,8.85-5.99c3.4-1.48,7.04-2.23,10.94-2.23c3.82,0,7.31,0.68,10.43,2.03
		c3.13,1.35,5.88,2.89,8.21,4.6c2.34,1.72,4.21,3.35,5.6,4.9c1.38,1.55,2.21,2.52,2.47,2.92c0.85,1.12,1.46,2.36,1.83,3.71
		c0.36,1.35,0.46,2.69,0.3,4.01c-0.16,1.32-0.59,2.59-1.29,3.81c-0.69,1.22-1.6,2.26-2.72,3.12c-1.12,0.86-2.36,1.45-3.71,1.78
		s-2.69,0.41-4.01,0.25c-1.32-0.16-2.57-0.58-3.76-1.24c-1.19-0.66-2.21-1.55-3.07-2.67c-0.4-0.53-0.98-1.17-1.73-1.93
		c-0.76-0.76-1.62-1.47-2.57-2.13c-0.96-0.66-1.95-1.22-2.97-1.68c-1.02-0.46-2.03-0.69-3.02-0.69c-1.98,0-3.68,0.71-5.1,2.13
		c-1.42,1.42-2.12,3.12-2.12,5.1c0,1.32,0.34,2.54,1.04,3.66c0.69,1.12,1.6,2.01,2.72,2.67l17.42,7.42c0.13,0,0.21,0.02,0.24,0.05
		C59.29,61.26,59.34,61.28,59.41,61.28z"/>
	<path class="st0" d="M219.71,100.46c0.99,1.06,1.75,2.23,2.28,3.51c0.52,1.29,0.79,2.59,0.79,3.91s-0.27,2.62-0.79,3.91
		c-0.53,1.29-1.29,2.42-2.28,3.41c-0.99,1.06-2.12,1.83-3.41,2.32c-1.29,0.49-2.59,0.74-3.9,0.74c-1.32,0-2.62-0.25-3.9-0.74
		c-1.29-0.49-2.45-1.27-3.51-2.32l-4.74-4.75c-3.89,2.51-8.09,4.45-12.61,5.84c-4.52,1.39-9.25,2.08-14.18,2.08
		c-4.55,0-8.94-0.59-13.15-1.78c-4.22-1.19-8.16-2.85-11.82-5c-3.66-2.14-6.98-4.72-9.98-7.72c-3-3-5.57-6.33-7.71-9.99
		c-2.14-3.66-3.81-7.6-4.99-11.82c-1.19-4.22-1.78-8.61-1.78-13.16c0-4.55,0.59-8.94,1.78-13.16c1.18-4.22,2.85-8.16,4.99-11.82
		c2.14-3.66,4.72-6.99,7.71-9.99c3-3,6.32-5.57,9.98-7.72c3.66-2.14,7.6-3.81,11.82-5c4.21-1.19,8.6-1.78,13.15-1.78
		c6.78,0,13.19,1.3,19.23,3.91c6.03,2.61,11.27,6.13,15.71,10.59s7.97,9.7,10.58,15.73s3.9,12.45,3.9,19.25
		c0,4.95-0.69,9.68-2.08,14.2c-1.38,4.52-3.33,8.73-5.83,12.62L219.71,100.46z M202.09,68.87c0-3.97-0.74-7.69-2.23-11.16
		c-1.48-3.47-3.53-6.51-6.15-9.12c-2.61-2.61-5.64-4.66-9.11-6.15c-3.47-1.49-7.19-2.23-11.15-2.23c-3.97,0-7.68,0.75-11.16,2.23
		c-3.47,1.49-6.51,3.54-9.11,6.16c-2.61,2.61-4.66,5.66-6.15,9.13c-1.48,3.48-2.23,7.2-2.23,11.17c0,3.97,0.74,7.7,2.23,11.17
		c1.48,3.47,3.53,6.52,6.15,9.14c2.61,2.62,5.64,4.67,9.11,6.16c3.47,1.49,7.18,2.23,11.14,2.23c4.16,0,7.99-0.82,11.49-2.47
		l-18.8-18.9c-1.06-0.99-1.85-2.13-2.38-3.41c-0.53-1.29-0.79-2.59-0.79-3.91s0.26-2.62,0.79-3.91c0.53-1.29,1.32-2.42,2.38-3.41
		c0.99-1.06,2.12-1.83,3.41-2.32c1.29-0.49,2.59-0.74,3.91-0.74s2.62,0.25,3.91,0.74c1.29,0.49,2.42,1.27,3.41,2.32l18.89,18.8
		C201.27,76.94,202.09,73.1,202.09,68.87z"/>
	<path class="st0" d="M339.38,19.42c1.44,0,2.79,0.28,4.04,0.84c1.24,0.56,2.33,1.3,3.24,2.23c0.92,0.92,1.66,2.01,2.22,3.26
		s0.84,2.61,0.84,4.06v49.48c0,5.41-1.02,10.49-3.07,15.24c-2.04,4.75-4.83,8.89-8.35,12.42c-3.53,3.53-7.66,6.32-12.4,8.36
		c-4.74,2.04-9.79,3.07-15.12,3.07c-5.4,0-10.48-1.02-15.22-3.07c-4.74-2.04-8.88-4.84-12.41-8.36c-3.52-3.53-6.3-7.67-8.34-12.42
		c-2.05-4.75-3.07-9.83-3.07-15.24V29.81c0-1.45,0.26-2.8,0.78-4.06c0.53-1.25,1.26-2.34,2.22-3.26c0.95-0.92,2.05-1.67,3.3-2.23
		c1.24-0.56,2.59-0.84,4.03-0.84s2.81,0.28,4.09,0.84c1.28,0.56,2.38,1.31,3.3,2.23c0.91,0.92,1.66,2.01,2.21,3.27
		c0.56,1.26,0.84,2.61,0.84,4.06v49.54c0,2.51,0.48,4.87,1.44,7.08c0.96,2.21,2.27,4.14,3.92,5.8c1.66,1.65,3.59,2.96,5.81,3.91
		c2.21,0.96,4.58,1.44,7.09,1.44s4.88-0.48,7.09-1.44c2.21-0.96,4.13-2.26,5.75-3.91c1.62-1.65,2.91-3.58,3.87-5.8
		c0.96-2.21,1.44-4.57,1.44-7.08V29.83c0-1.45,0.27-2.8,0.83-4.06c0.56-1.25,1.3-2.34,2.22-3.27c0.91-0.92,2.01-1.67,3.3-2.23
		C336.58,19.71,337.94,19.42,339.38,19.42z"/>
	<path class="st0" d="M470.39,101.65c0.82,1.05,1.42,2.21,1.78,3.46c0.36,1.25,0.46,2.56,0.3,3.91c-0.16,1.35-0.58,2.66-1.24,3.91
		c-0.92,1.71-2.19,3.02-3.81,3.91c-1.62,0.89-3.31,1.34-5.09,1.34c-1.58,0-3.23-0.43-4.95-1.29l-39.68-22.16v13.26
		c0,1.39-0.26,2.69-0.79,3.91c-0.53,1.22-1.25,2.31-2.17,3.27c-0.93,0.96-2.01,1.69-3.26,2.22c-1.26,0.53-2.58,0.79-3.96,0.79
		c-1.39,0-2.71-0.26-3.96-0.79c-1.26-0.53-2.34-1.27-3.26-2.22c-0.93-0.96-1.65-2.05-2.18-3.27c-0.53-1.22-0.79-2.52-0.79-3.91
		V77.51v-0.3V31.5c0-1.39,0.26-2.7,0.79-3.96c0.53-1.25,1.25-2.34,2.18-3.26c0.92-0.92,2.01-1.65,3.26-2.18
		c1.25-0.53,2.57-0.79,3.96-0.79h29.29c5.08,0,9.79,0.84,14.15,2.52c4.36,1.68,8.13,4.01,11.33,6.98c3.2,2.97,5.71,6.46,7.52,10.49
		s2.72,8.41,2.72,13.16c0,4.02-0.68,7.82-2.03,11.38c-1.35,3.56-3.23,6.75-5.64,9.55c-2.41,2.81-5.28,5.18-8.61,7.12
		c-3.33,1.95-7.01,3.35-11.04,4.21l22.07,12.37C468.52,99.74,469.56,100.6,470.39,101.65z M452.13,54.45c0-2.18-0.45-4.07-1.33-5.69
		c-0.89-1.62-2.05-2.95-3.46-4.01c-1.42-1.06-3.05-1.83-4.9-2.33c-1.84-0.49-3.73-0.74-5.64-0.74h-19.1v25.43h19.1
		c1.91,0,3.79-0.25,5.64-0.74c1.85-0.49,3.48-1.25,4.9-2.28c1.42-1.02,2.57-2.34,3.46-3.96C451.68,58.53,452.13,56.63,452.13,54.45z
		"/>
	<path class="st0" d="M584.83,96.9c1.25,0.53,2.34,1.25,3.26,2.18c0.92,0.92,1.65,2.01,2.18,3.26c0.52,1.25,0.79,2.57,0.79,3.96
		s-0.27,2.7-0.79,3.96c-0.53,1.25-1.26,2.34-2.18,3.26c-0.93,0.92-2.01,1.65-3.26,2.18c-1.26,0.53-2.57,0.79-3.96,0.79H531
		c-1.39,0-2.71-0.26-3.96-0.79c-1.26-0.53-2.34-1.25-3.27-2.18c-0.93-0.92-1.65-2.01-2.18-3.26c-0.53-1.25-0.79-2.57-0.79-3.96
		V29.62c0-1.39,0.26-2.7,0.79-3.96c0.53-1.25,1.25-2.34,2.18-3.26c0.92-0.92,2.01-1.65,3.27-2.18c1.25-0.53,2.57-0.79,3.96-0.79
		c1.38,0,2.7,0.26,3.96,0.79c1.25,0.53,2.36,1.25,3.31,2.18c0.96,0.92,1.7,2.01,2.23,3.26c0.52,1.25,0.79,2.57,0.79,3.96v66.49
		h39.58C582.26,96.11,583.57,96.37,584.83,96.9z"/>
</g>
</svg>
